<svg width="20" height="24" viewBox="0 0 20 24" fill="none" xmlns="http://www.w3.org/2000/svg">
<path fill-rule="evenodd" clip-rule="evenodd" d="M10.7988 0L7.80273 5.07876L5.95312 3.20053L5.25 4.01257C1.767 8.0259 0 11.6724 0 14.8511C0 19.8952 4.486 24 10 24C15.514 24 20 19.8952 20 14.8511C20 10.0103 14.8031 4.04121 11.7051 0.913302L10.7988 0ZM11.1914 3.2859C13.7674 6.01634 18 11.0777 18 14.8511C18 17.2819 16.6203 19.4299 14.5234 20.7141C14.822 19.9888 15 19.1892 15 18.3375C15 15.9171 13.3153 13.0461 11.9023 11.0649L11.0586 9.87955L8.84375 13.2568L7.4375 11.8273L6.77734 12.9351C5.59834 14.9133 5 16.7304 5 18.3375C5 19.1892 5.17799 19.9888 5.47656 20.7141C3.37973 19.4299 2 17.2819 2 14.8511C2 12.4226 3.39764 9.43972 6.05664 6.18068L8.19727 8.3587L11.1914 3.2859ZM13 18.3375C13 17.1217 12.3335 15.4259 11.1035 13.4772L9.15625 16.4474L7.86523 15.137C7.29023 16.3274 7 17.4003 7 18.3375C7 20.3391 8.346 21.9669 10 21.9669C11.654 21.9669 13 20.3391 13 18.3375Z" fill="white"/>
</svg>
