<svg width="39" height="31" viewBox="0 0 39 31" fill="none" xmlns="http://www.w3.org/2000/svg">
<path fill-rule="evenodd" clip-rule="evenodd" d="M6.73535 2.62294L8.21484 0L16.0781 2.91857C16.9043 1.95097 18.1227 1.32162 19.5 1.32162C21.981 1.32162 24 3.31897 24 5.77337C24 5.78993 23.9978 5.80584 23.9956 5.82176L23.9956 5.82179C23.9936 5.8364 23.9915 5.85101 23.9912 5.86612L31.5 8.74121L39 21.7255V22.1197C39 26.2094 35.6355 29.5161 31.5 29.5161C27.3645 29.5161 24 26.2094 24 22.1197V21.7255L29.9854 11.3613L22.9131 8.63977C22.4052 9.23069 21.7525 9.68711 21 9.95269V28.0322V31H18H12V28.0322H18V9.95269C16.2581 9.33795 15 7.70486 15 5.77337C15 5.75902 15.0022 5.74524 15.0044 5.73147L15.0044 5.73146C15.0065 5.71854 15.0085 5.70562 15.0088 5.69222L8.68359 3.34461L15 14.2827V14.6769C15 18.7681 11.6355 22.0965 7.5 22.0965C3.3645 22.0965 0 18.7681 0 14.6769V14.2827L6.73535 2.62294ZM21 5.77337C21 4.95573 20.328 4.28945 19.5 4.28945C18.672 4.28945 18 4.95573 18 5.77337C18 6.59101 18.672 7.25729 19.5 7.25729C20.328 7.25729 21 6.59101 21 5.77337ZM7.5 7.28048L10.916 13.193H4.08398L7.5 7.28048ZM34.9014 20.6126L31.5 14.7233L28.0986 20.6126H34.9014ZM3.27832 16.1608H11.7217C11.1003 17.8846 9.45326 19.1286 7.5 19.1286C5.54674 19.1286 3.89969 17.8846 3.27832 16.1608ZM31.5 26.5714C33.4621 26.5714 35.1158 25.3164 35.7305 23.5804H27.2695C27.8842 25.3164 29.5379 26.5714 31.5 26.5714Z" fill="white"/>
</svg>
