<svg width="36" height="36" viewBox="0 0 36 36" fill="none" xmlns="http://www.w3.org/2000/svg">
<path fill-rule="evenodd" clip-rule="evenodd" d="M13.5 3V0H22.5V9H13.5V6H7.5C6.65039 6 6 6.65039 6 7.5V13.5H9V22.5H0V13.5H3V7.5C3 5.0332 5.0332 3 7.5 3H13.5ZM19.5 3H16.5V6H19.5V3ZM24 3V6H28.5C29.3496 6 30 6.65039 30 7.5V13.5H27V22.5H36V13.5H33V7.5C33 5.0332 30.9668 3 28.5 3H24ZM6 16.5H3V19.5H6V16.5ZM30 16.5H33V19.5H30V16.5ZM3 28.5V24H6V28.5C6 29.3496 6.65039 30 7.5 30H13.5V27H22.5V36H13.5V33H7.5C5.0332 33 3 30.9668 3 28.5ZM30 24V28.5C30 29.3496 29.3496 30 28.5 30H24V33H28.5C30.9668 33 33 30.9668 33 28.5V24H30ZM19.5 30H16.5V33H19.5V30Z" fill="white"/>
</svg>
