<svg width="24" height="24" viewBox="0 0 24 24" fill="none" xmlns="http://www.w3.org/2000/svg">
<path fill-rule="evenodd" clip-rule="evenodd" d="M0 12C0 5.38281 5.38281 0 12 0C18.6172 0 24 5.38281 24 12C24 18.6172 18.6172 24 12 24C5.38281 24 0 18.6172 0 12ZM13 2.0625C12.6719 2.03125 12.3359 2 12 2C11.6641 2 11.3281 2.03125 11 2.0625V5.09375C11.3281 5.04688 11.6602 5 12 5C12.3398 5 12.6719 5.04688 13 5.09375V2.0625ZM9 2.4375V5.6875C7.54688 6.38281 6.37891 7.54688 5.6875 9H2.46875C3.44141 5.875 5.88281 3.41406 9 2.4375ZM21.5625 9C20.5859 5.88672 18.1133 3.41406 15 2.4375V5.6875C16.4531 6.37891 17.6211 7.54688 18.3125 9H21.5625ZM12 7C14.7734 7 17 9.22656 17 12C17 14.7734 14.7734 17 12 17C9.22656 17 7 14.7734 7 12C7 9.22656 9.22656 7 12 7ZM5.0625 11H2.0625C2.03125 11.3281 2 11.6641 2 12C2 12.3359 2.03125 12.6719 2.0625 13H5.09375C5.04688 12.6719 5 12.3398 5 12C5 11.6641 5.01562 11.3242 5.0625 11ZM18.9062 11H21.9375C21.9688 11.3281 22 11.6641 22 12C22 12.3359 21.9688 12.6719 21.9375 13H18.9062C18.9531 12.6719 19 12.3398 19 12C19 11.6602 18.9531 11.3281 18.9062 11ZM5.6875 15H2.4375C3.41406 18.1133 5.88672 20.5859 9 21.5625V18.3125C7.54688 17.6211 6.37891 16.4531 5.6875 15ZM18.3125 15H21.5625C20.5859 18.1133 18.1133 20.5859 15 21.5625V18.3125C16.4531 17.6211 17.6211 16.4531 18.3125 15ZM12 19C11.6602 19 11.3281 18.9531 11 18.9062V21.9375C11.3281 21.9688 11.6641 22 12 22C12.3359 22 12.6719 21.9688 13 21.9375V18.9062C12.6719 18.9531 12.3398 19 12 19Z" fill="white"/>
</svg>
