<svg width="36" height="36" viewBox="0 0 36 36" fill="none" xmlns="http://www.w3.org/2000/svg">
<path fill-rule="evenodd" clip-rule="evenodd" d="M25.2032 1.86287C26.4389 0.622898 28.0867 0 29.7054 0C31.3241 0 32.9254 0.622898 34.1612 1.86287L34.3468 2.09573C36.6038 4.58732 36.5573 8.44696 34.1612 10.8512L20.7938 24.2639L20.0511 24.9625L17.127 32.6934L16.8021 33.4851L15.9666 33.6248L1.99583 35.7206L0 36L0.278488 33.9974L2.36715 19.9793L2.50639 19.141L3.29544 18.815L11.418 15.6947L25.2032 1.86287ZM32.0725 4.00517C31.3763 3.3066 30.5408 2.93402 29.7054 2.93402C28.8699 2.93402 28.0345 3.3066 27.3382 4.00517L19.8655 11.5032L24.5998 16.2536L32.0725 8.7555C33.465 7.35834 33.465 5.40233 32.0725 4.00517ZM17.7304 13.6455L22.4647 18.3959L19.7726 21.097L15.0383 16.3467L17.7304 13.6455ZM12.8104 18.3493H12.764L5.15203 21.2833L3.89883 29.9922L7.89049 25.9871C7.88779 25.9492 7.87758 25.9138 7.86742 25.8787C7.85571 25.8381 7.84408 25.7978 7.84408 25.7542C7.84408 24.4386 8.90001 23.3325 10.2112 23.3325C11.5224 23.3325 12.6248 24.4386 12.6248 25.7542C12.6248 27.0699 11.5224 28.1294 10.2112 28.1294C10.1677 28.1294 10.1276 28.1177 10.0872 28.1059C10.0521 28.0957 10.0169 28.0855 9.97915 28.0828L5.98749 32.088L14.667 30.8305L17.5912 23.1462L12.8104 18.3493Z" fill="white"/>
</svg>
